<svg xmlns="http://www.w3.org/2000/svg" viewBox="0 0 320 320" role="img" aria-label="2026 FIFA World Cup">
  <defs>
    <linearGradient id="gold" x1="0" y1="0" x2="1" y2="1">
      <stop offset="0" stop-color="#f2d278"/>
      <stop offset="0.45" stop-color="#b88b2f"/>
      <stop offset="1" stop-color="#f4d986"/>
    </linearGradient>
    <linearGradient id="blue" x1="0" y1="0" x2="1" y2="1">
      <stop offset="0" stop-color="#083b7a"/>
      <stop offset="0.55" stop-color="#0b83c4"/>
      <stop offset="1" stop-color="#54c7ed"/>
    </linearGradient>
    <filter id="softShadow" x="-20%" y="-20%" width="140%" height="140%">
      <feDropShadow dx="0" dy="5" stdDeviation="5" flood-color="#000000" flood-opacity="0.22"/>
    </filter>
  </defs>
  <rect width="320" height="320" rx="54" fill="#f8faf8"/>
  <path d="M57 205a119 119 0 0 1 13-102 121 121 0 0 1 75-55" fill="none" stroke="url(#gold)" stroke-width="10" stroke-linecap="round"/>
  <path d="M264 205a119 119 0 0 0-13-102 121 121 0 0 0-75-55" fill="none" stroke="url(#gold)" stroke-width="10" stroke-linecap="round"/>
  <text x="160" y="64" text-anchor="middle" font-family="Arial Black, Arial, sans-serif" font-size="46" font-weight="900" fill="url(#gold)" filter="url(#softShadow)">2026</text>
  <g filter="url(#softShadow)">
    <circle cx="160" cy="166" r="91" fill="#ffffff" stroke="#f5f1de" stroke-width="5"/>
    <path d="M160 98l40 25-13 45h-54l-13-45z" fill="url(#gold)" stroke="#ffffff" stroke-width="8" stroke-linejoin="round"/>
    <path d="M86 149l43-23 9 39-25 35-34-18z" fill="url(#gold)" stroke="#ffffff" stroke-width="7" stroke-linejoin="round"/>
    <path d="M234 149l-43-23-9 39 25 35 34-18z" fill="url(#gold)" stroke="#ffffff" stroke-width="7" stroke-linejoin="round"/>
    <path d="M113 200l28-35h38l28 35-18 39h-58z" fill="url(#blue)" stroke="#ffffff" stroke-width="8" stroke-linejoin="round"/>
    <path d="M79 184l34 18 18 37-35-15a91 91 0 0 1-17-40z" fill="#004184" stroke="#ffffff" stroke-width="6" stroke-linejoin="round"/>
    <path d="M241 184l-34 18-18 37 35-15a91 91 0 0 0 17-40z" fill="#006dae" stroke="#ffffff" stroke-width="6" stroke-linejoin="round"/>
    <path d="M96 224l35 15h58l35-15a91 91 0 0 1-128 0z" fill="#35aee0" stroke="#ffffff" stroke-width="6" stroke-linejoin="round"/>
  </g>
  <text x="160" y="285" text-anchor="middle" font-family="Arial Black, Arial, sans-serif" font-size="34" font-weight="900" fill="#003f7f">FIFA World Cup</text>
</svg>
